<svg width="1920" height="1134" viewBox="0 0 1920 1134" fill="none" xmlns="http://www.w3.org/2000/svg">
<g clip-path="url(#clip0_10169_1594)">
<rect width="1920" height="1134" fill="black"/>
<ellipse cx="1110.67" cy="1256.48" rx="897.73" ry="1673.02" transform="rotate(51.6141 1110.67 1256.48)" fill="url(#paint0_radial_10169_1594)"/>
<path opacity="0.75" d="M189.829 130.226V125.136H187.461V130.226C187.461 132.561 185.571 134.451 183.235 134.451H178.145V136.82H183.235C185.571 136.82 187.461 138.71 187.461 141.045V146.136H189.829V141.045C189.829 138.71 191.719 136.82 194.055 136.82H199.145V134.451H194.055C191.719 134.451 189.829 132.561 189.829 130.226Z" fill="white"/>
<path opacity="0.75" d="M341.79 638.938V635.544H340.21V638.938C340.21 640.494 338.95 641.754 337.394 641.754H334V643.334H337.394C338.95 643.334 340.21 644.594 340.21 646.15V649.544H341.79V646.15C341.79 644.594 343.05 643.334 344.606 643.334H348V641.754H344.606C343.05 641.754 341.79 640.494 341.79 638.938Z" fill="white"/>
<path opacity="0.75" d="M651.79 201.26V197.866H650.21V201.26C650.21 202.817 648.95 204.077 647.394 204.077H644V205.656H647.394C648.95 205.656 650.21 206.916 650.21 208.473V211.866H651.79V208.473C651.79 206.916 653.05 205.656 654.606 205.656H658V204.077H654.606C653.05 204.077 651.79 202.817 651.79 201.26Z" fill="white"/>
<path opacity="0.75" d="M496.395 378.718V377.021H495.605V378.718C495.605 379.496 494.975 380.126 494.197 380.126H492.5V380.916H494.197C494.975 380.916 495.605 381.546 495.605 382.324V384.021H496.395V382.324C496.395 381.546 497.025 380.916 497.803 380.916H499.5V380.126H497.803C497.025 380.126 496.395 379.496 496.395 378.718Z" fill="white"/>
<path opacity="0.75" d="M960.395 98.6372V96.9404H959.605V98.6372C959.605 99.4156 958.975 100.046 958.197 100.046H956.5V100.835H958.197C958.975 100.835 959.605 101.465 959.605 102.244V103.94H960.395V102.244C960.395 101.465 961.025 100.835 961.803 100.835H963.5V100.046H961.803C961.025 100.046 960.395 99.4156 960.395 98.6372Z" fill="white"/>
<g clip-path="url(#clip1_10169_1594)">
<path d="M371.73 907.118C371.73 883.568 383.082 870.474 400.807 870.474C418.531 870.474 415.893 873.66 420.274 879.585V871.569H437.202V945.605C437.202 964.774 423.958 974.582 406.383 974.582C388.808 974.582 376.211 966.516 373.722 949.688H390.799C391.845 957.256 397.919 961.189 406.134 961.189C414.349 961.189 420.274 957.106 420.274 945.854V933.955C415.644 940.328 409.022 943.614 400.807 943.614C382.833 943.614 371.73 929.723 371.73 907.118ZM420.274 907.118C420.274 892.68 414.598 884.514 404.69 884.514C394.782 884.514 389.206 892.431 389.206 907.118C389.206 921.806 394.633 929.623 404.69 929.623C414.747 929.623 420.274 921.707 420.274 907.118Z" fill="#FFF5EF"/>
<path d="M481.314 870.474C472.85 870.474 466.228 873.66 461.847 879.585V848.119H444.919V942.518H461.847V933.955C466.477 940.328 473.099 943.614 481.314 943.614C499.288 943.614 510.391 929.723 510.391 907.118C510.391 884.514 499.039 870.474 481.314 870.474ZM477.431 929.623C467.274 929.623 461.847 921.707 461.847 907.118C461.847 892.53 467.523 884.514 477.431 884.514C487.339 884.514 492.915 892.431 492.915 907.118C492.915 921.806 487.488 929.623 477.431 929.623Z" fill="#FFF5EF"/>
<path d="M327.069 871.619L342.404 925.59L355.499 871.619H372.427L353.806 942.518H331.799L317.659 888.597L303.519 942.518H281.513L262.892 871.619H279.82L292.914 925.59L308.249 871.619H327.069Z" fill="#FFF5EF"/>
<path d="M240.686 830.942C185.421 874.158 128.263 882.473 128.263 882.473C128.263 882.473 124.28 883.071 122.836 884.714C120.546 887.203 121.542 889.991 121.542 889.991C121.542 889.991 121.542 889.991 121.542 890.041C122.089 891.883 133.84 931.913 97.4939 990.066C95.1538 993.801 95.8508 996.041 97.5436 997.784C99.4854 999.327 101.776 999.725 105.211 997.037C160.526 953.82 217.634 945.555 217.634 945.555C217.634 945.555 221.617 945.107 222.961 943.564C225.252 940.875 224.405 938.087 224.405 938.087C223.957 936.544 211.958 896.414 248.453 838.012C250.793 834.278 250.096 832.037 248.403 830.295C246.462 828.751 244.171 828.353 240.736 831.041L240.686 830.942Z" fill="#FFF5EF"/>
<path d="M291.421 970.798L291.172 969.354L290.873 970.798L288.334 979.86H285.197L281.513 967.164H284.251L286.591 976.623L286.89 978.067L287.238 976.623L289.927 967.164H292.616L295.304 976.623L295.603 977.968L295.902 976.623L298.242 967.164H300.88L297.196 979.86H294.01L291.47 970.798H291.421Z" fill="#FFF5EF"/>
<path d="M307.95 980.158C304.216 980.158 301.926 977.669 301.926 973.487C301.926 969.304 304.216 966.765 307.851 966.765C311.485 966.765 313.726 969.255 313.726 973.337V973.935H304.515C304.664 976.524 305.859 977.968 307.95 977.968C310.041 977.968 310.738 977.221 311.137 975.628H313.825C313.128 978.565 310.938 980.109 307.95 980.109V980.158ZM304.565 972.242H311.037C310.738 970.101 309.593 968.906 307.801 968.906C306.008 968.906 304.863 970.051 304.565 972.242Z" fill="#FFF5EF"/>
<path d="M320.298 973.387C320.298 969.155 322.289 966.815 325.476 966.815C328.662 966.815 328.314 967.363 329.11 968.458V967.114H331.65V980.208C331.65 983.693 329.359 985.386 326.272 985.386C323.186 985.386 321.045 983.942 320.597 981.005H323.136C323.385 982.548 324.58 983.345 326.272 983.345C327.965 983.345 329.11 982.449 329.11 980.258V978.117C328.264 979.262 327.019 979.86 325.476 979.86C322.24 979.86 320.298 977.37 320.298 973.337V973.387ZM329.16 973.337C329.16 970.549 328.015 968.906 326.024 968.906C324.032 968.906 322.887 970.45 322.887 973.337C322.887 976.225 324.032 977.719 326.024 977.719C328.015 977.719 329.16 976.175 329.16 973.287V973.337Z" fill="#FFF5EF"/>
<path d="M334.189 973.487C334.189 969.155 336.479 966.765 340.114 966.765C343.748 966.765 346.039 969.304 346.039 973.487C346.039 977.669 343.748 980.158 340.114 980.158C336.479 980.158 334.189 977.669 334.189 973.487ZM343.45 973.487C343.45 970.599 342.255 968.956 340.114 968.956C337.973 968.956 336.778 970.549 336.778 973.487C336.778 976.424 337.973 978.017 340.114 978.017C342.255 978.017 343.45 976.424 343.45 973.487Z" fill="#FFF5EF"/>
<path d="M282.807 1003.01V985.834H285.346V991.759C286.143 990.614 287.338 989.967 288.782 989.967C292.118 989.967 294.159 992.456 294.159 996.638C294.159 1000.82 292.068 1003.36 288.782 1003.36C285.496 1003.36 286.143 1002.76 285.346 1001.62V1003.06H282.807V1003.01ZM285.396 996.638C285.396 999.526 286.491 1001.17 288.533 1001.17C290.574 1001.17 291.62 999.576 291.62 996.638C291.62 993.701 290.524 992.108 288.533 992.108C286.541 992.108 285.396 993.701 285.396 996.638Z" fill="#FFF5EF"/>
<path d="M302.076 1003.31C298.342 1003.31 296.051 1000.82 296.051 996.638C296.051 992.456 298.342 989.917 301.976 989.917C305.611 989.917 307.851 992.406 307.851 996.489V997.087H298.64C298.79 999.676 299.985 1001.12 302.076 1001.12C304.167 1001.12 304.864 1000.37 305.262 998.779H307.951C307.254 1001.72 305.063 1003.26 302.076 1003.26V1003.31ZM298.74 995.394H305.212C304.914 993.253 303.769 992.058 301.976 992.058C300.184 992.058 299.039 993.203 298.74 995.394Z" fill="#FFF5EF"/>
<path d="M309.444 1008.34V1006.4H310.141C311.585 1006.4 312.133 1006.1 313.228 1003.46L313.626 1002.56L308.548 990.315H311.286L314.423 998.232L314.971 999.974L315.518 998.232L318.555 990.315H321.144L315.369 1004.51C314.074 1007.69 313.128 1008.59 310.838 1008.59C308.548 1008.59 309.743 1008.44 309.444 1008.34Z" fill="#FFF5EF"/>
<path d="M321.991 996.638C321.991 992.307 324.281 989.917 327.916 989.917C331.55 989.917 333.84 992.456 333.84 996.638C333.84 1000.82 331.55 1003.31 327.916 1003.31C324.281 1003.31 321.991 1000.82 321.991 996.638ZM331.251 996.638C331.251 993.751 330.056 992.108 327.916 992.108C325.775 992.108 324.58 993.701 324.58 996.638C324.58 999.576 325.775 1001.17 327.916 1001.17C330.056 1001.17 331.251 999.576 331.251 996.638Z" fill="#FFF5EF"/>
<path d="M336.33 990.315H338.869V992.008C339.716 990.664 341.06 989.967 342.703 989.967C345.342 989.967 346.985 991.51 346.985 994.498V1003.01H344.446V995.045C344.446 993.203 343.649 992.108 341.906 992.108C340.164 992.108 338.869 993.801 338.869 995.543V1003.01H336.33V990.315Z" fill="#FFF5EF"/>
<path d="M349.524 996.638C349.524 992.307 351.615 989.917 354.901 989.917C358.187 989.917 357.54 990.514 358.337 991.659V985.784H360.876V1002.96H358.337V1001.42C357.54 1002.61 356.345 1003.26 354.901 1003.26C351.515 1003.26 349.524 1000.77 349.524 996.589V996.638ZM358.337 996.638C358.337 993.751 357.191 992.108 355.2 992.108C353.208 992.108 352.063 993.751 352.063 996.638C352.063 999.526 353.208 1001.17 355.2 1001.17C357.191 1001.17 358.337 999.576 358.337 996.638Z" fill="#FFF5EF"/>
</g>
</g>
<defs>
<radialGradient id="paint0_radial_10169_1594" cx="0" cy="0" r="1" gradientUnits="userSpaceOnUse" gradientTransform="translate(1110.67 1256.48) rotate(90) scale(1673.02 897.73)">
<stop offset="0.826923" stop-color="#0028FF" stop-opacity="0"/>
<stop offset="1" stop-color="#0028FF"/>
</radialGradient>
<clipPath id="clip0_10169_1594">
<rect width="1920" height="1134" fill="white"/>
</clipPath>
<clipPath id="clip1_10169_1594">
<rect width="414.391" height="179.538" fill="white" transform="translate(96 829)"/>
</clipPath>
</defs>
</svg>
