<svg width="361" height="359" viewBox="0 0 361 359" fill="none" xmlns="http://www.w3.org/2000/svg">
<path d="M280.514 71.7512C295.628 87.1631 297.827 112.555 288.932 141.314C280.045 170.049 260.116 201.999 231.231 230.326C202.346 258.652 170.013 277.953 141.11 286.278C112.182 294.61 86.8385 291.915 71.7247 276.503C56.611 261.091 54.4115 235.699 63.3064 206.94C72.1937 178.205 92.1224 146.255 121.008 117.929C149.893 89.6019 182.226 70.3008 211.129 61.9763C240.056 53.6447 265.4 56.3395 280.514 71.7512Z" stroke="#FFF5EF" stroke-width="1.12491"/>
<path d="M312.452 49.9932C331.741 69.6622 334.629 101.938 323.476 138.381C312.331 174.801 287.195 215.24 250.691 251.038C214.187 286.836 173.265 311.177 136.635 321.609C99.9805 332.048 67.7677 328.531 48.4791 308.862C29.1907 289.193 26.3033 256.918 37.456 220.475C48.6016 184.055 73.7367 143.616 110.241 107.818C146.745 72.0196 187.667 47.6789 224.298 37.2465C260.952 26.8074 293.164 30.3244 312.452 49.9932Z" stroke="#FFF5EF" stroke-width="1.12491"/>
<path d="M240.083 90.8295C250.787 101.745 252.369 119.757 246.041 140.219C239.72 160.657 225.541 183.393 204.981 203.555C184.421 223.718 161.412 237.45 140.855 243.371C120.273 249.299 102.295 247.365 91.5909 236.45C80.8868 225.534 79.3049 207.523 85.6335 187.061C91.9547 166.623 106.134 143.887 126.694 123.725C147.254 103.562 170.262 89.8299 190.82 83.909C211.401 77.9812 229.378 79.9145 240.083 90.8295Z" stroke="#FFF5EF" stroke-width="1.12491"/>
<path d="M179.699 143.852C167.71 153.227 155.333 155.014 155.333 155.014C155.333 155.014 154.473 155.149 154.152 155.503C153.646 156.043 153.866 156.65 153.866 156.65C153.984 157.038 156.53 165.722 148.655 178.335C148.149 179.145 148.301 179.634 148.655 180.005C149.077 180.342 149.566 180.426 150.324 179.836C162.314 170.477 174.691 168.673 174.691 168.673C174.691 168.673 175.551 168.572 175.837 168.235C176.343 167.644 176.141 167.037 176.141 167.037C176.04 166.7 173.443 157.999 181.351 145.352C181.857 144.543 181.705 144.054 181.351 143.683C180.93 143.346 180.441 143.261 179.682 143.852H179.699Z" fill="#FFF5EF"/>
</svg>
