<svg width="360" height="360" viewBox="0 0 360 360" fill="none" xmlns="http://www.w3.org/2000/svg">
<path d="M280.514 71.7512C295.628 87.1631 297.828 112.555 288.933 141.314C280.045 170.049 260.117 201.999 231.231 230.326C202.346 258.652 170.013 277.953 141.11 286.278C112.183 294.61 86.8387 291.915 71.725 276.503C56.6112 261.091 54.4118 235.699 63.3066 206.94C72.194 178.205 92.1227 146.255 121.008 117.929C149.893 89.6019 182.226 70.3008 211.129 61.9763C240.057 53.6447 265.401 56.3395 280.514 71.7512Z" stroke="#FFF5EF" stroke-width="1.12491"/>
<path d="M312.453 49.9932C331.741 69.6622 334.629 101.938 323.477 138.381C312.331 174.801 287.196 215.24 250.692 251.038C214.187 286.836 173.265 311.177 136.635 321.609C99.9808 332.048 67.7681 328.531 48.4794 308.862C29.191 289.193 26.3036 256.918 37.4564 220.475C48.602 184.055 73.7371 143.616 110.241 107.818C146.746 72.0196 187.667 47.6789 224.298 37.2465C260.952 26.8074 293.164 30.3244 312.453 49.9932Z" stroke="#FFF5EF" stroke-width="1.12491"/>
<path d="M240.083 90.8295C250.787 101.745 252.37 119.757 246.041 140.219C239.72 160.657 225.541 183.393 204.981 203.555C184.421 223.718 161.412 237.45 140.855 243.371C120.273 249.299 102.295 247.365 91.5912 236.45C80.8872 225.534 79.3053 207.523 85.6339 187.061C91.955 166.623 106.134 143.887 126.694 123.725C147.254 103.562 170.263 89.8299 190.82 83.909C211.402 77.9812 229.379 79.9145 240.083 90.8295Z" stroke="#FFF5EF" stroke-width="1.12491"/>
<path d="M179.235 144.31C167.277 153.716 154.932 155.509 154.932 155.509C154.932 155.509 154.074 155.644 153.755 155.999C153.25 156.541 153.469 157.15 153.469 157.15C153.587 157.539 156.126 166.251 148.272 178.904C147.767 179.716 147.919 180.206 148.272 180.579C148.692 180.917 149.18 181.002 149.937 180.409C161.895 171.021 174.24 169.211 174.24 169.211C174.24 169.211 175.098 169.109 175.384 168.771C175.888 168.179 175.687 167.57 175.687 167.57C175.586 167.232 172.996 158.503 180.884 145.816C181.388 145.004 181.237 144.513 180.884 144.141C180.463 143.803 179.975 143.718 179.219 144.31H179.235Z" fill="#FFF5EF"/>
</svg>
