<svg width="760" height="912" viewBox="0 0 760 912" fill="none" xmlns="http://www.w3.org/2000/svg">
<path opacity="0.5" d="M664.494 39.2466C727.58 81.7928 753.67 166.602 744.607 269.59C735.548 372.548 691.358 493.484 614.15 607.966C536.942 722.447 441.376 808.735 349.314 855.716C257.226 902.71 168.821 910.3 105.735 867.755C42.6494 825.209 16.5591 740.4 25.6213 637.412C34.6811 534.454 78.8702 413.516 156.078 299.035C233.286 184.554 328.853 98.2665 420.914 51.2859C513.002 4.29166 601.408 -3.29947 664.494 39.2466Z" stroke="#0028FF" stroke-width="1.52749"/>
<path d="M273.671 154.763C252.371 171.42 230.381 174.595 230.381 174.595C230.381 174.595 228.853 174.835 228.284 175.464C227.385 176.423 227.775 177.501 227.775 177.501C227.985 178.19 232.508 193.619 218.518 216.028C217.619 217.466 217.889 218.335 218.518 218.994C219.267 219.593 220.136 219.743 221.484 218.694C242.784 202.067 264.773 198.862 264.773 198.862C264.773 198.862 266.301 198.682 266.81 198.083C267.709 197.034 267.35 195.956 267.35 195.956C267.17 195.357 262.556 179.898 276.607 157.429C277.506 155.991 277.236 155.123 276.607 154.464C275.858 153.864 274.989 153.715 273.641 154.763H273.671Z" fill="#0028FF"/>
</svg>
