<svg width="670" height="628" viewBox="0 0 670 628" fill="none" xmlns="http://www.w3.org/2000/svg">
<path d="M494.161 463.666C648.605 316.231 709.062 128.888 629.195 45.2238C549.327 -38.44 359.38 13.2572 204.936 160.693C50.4919 308.128 -9.96487 495.471 69.9022 579.135C149.769 662.799 339.716 611.102 494.161 463.666Z" stroke="white" stroke-miterlimit="10"/>
<path d="M37.821 470.676V458.556H32.181V470.676C32.181 476.236 27.681 480.736 22.121 480.736H10.001V486.376H22.121C27.681 486.376 32.181 490.876 32.181 496.436V508.556H37.821V496.436C37.821 490.876 42.321 486.376 47.881 486.376H60.001V480.736H47.881C42.321 480.736 37.821 476.236 37.821 470.676Z" fill="white"/>
<path d="M548.391 400.756V395.906H546.131V400.756C546.131 402.976 544.331 404.776 542.111 404.776H537.261V407.036H542.111C544.331 407.036 546.131 408.836 546.131 411.056V415.906H548.391V411.056C548.391 408.836 550.191 407.036 552.411 407.036H557.261V404.776H552.411C550.191 404.776 548.391 402.976 548.391 400.756Z" fill="white"/>
<path d="M640.631 55.6861V53.2661H639.501V55.6861C639.501 56.7961 638.601 57.6961 637.491 57.6961H635.071V58.8261H637.491C638.601 58.8261 639.501 59.7261 639.501 60.8361V63.2561H640.631V60.8361C640.631 59.7261 641.531 58.8261 642.641 58.8261H645.061V57.6961H642.641C641.531 57.6961 640.631 56.7961 640.631 55.6861Z" fill="white"/>
</svg>
