<svg width="1261" height="1120" viewBox="0 0 1261 1120" fill="none" xmlns="http://www.w3.org/2000/svg">
<path d="M1041.15 175.192C1101.52 236.75 1110.38 337.549 1075.69 450.9C1041 564.23 962.824 689.98 849.348 801.262C735.871 912.544 608.619 988.254 494.633 1020.72C380.627 1053.19 280.02 1042.37 219.652 980.808C159.284 919.25 150.43 818.451 185.119 705.1C219.801 591.769 297.982 466.02 411.459 354.738C524.935 243.456 652.187 167.745 766.173 135.282C880.18 102.813 980.787 113.634 1041.15 175.192Z" stroke="white"/>
<path d="M386.142 378.128C368.884 391.624 351.068 394.197 351.068 394.197C351.068 394.197 349.83 394.391 349.369 394.9C348.641 395.677 348.956 396.551 348.956 396.551C349.126 397.109 352.791 409.61 341.456 427.765C340.728 428.931 340.946 429.634 341.456 430.168C342.063 430.654 342.767 430.775 343.859 429.926C361.117 416.454 378.933 413.857 378.933 413.857C378.933 413.857 380.171 413.712 380.583 413.226C381.312 412.377 381.02 411.503 381.02 411.503C380.875 411.017 377.137 398.493 388.521 380.288C389.249 379.123 389.03 378.419 388.521 377.885C387.914 377.4 387.21 377.279 386.118 378.128H386.142Z" fill="#FFF5EF"/>
</svg>
