<?xml version="1.0" encoding="UTF-8"?>
<svg xmlns="http://www.w3.org/2000/svg" viewBox="0 0 480 160">
  <defs>
    <style>
      .cls-1 { fill: #fff; }
    </style>
  </defs>
  <g transform="translate(80, 63.93)">
    <polygon class="cls-1" points="0 .83 7.41 .86 15.12 21.67 22.92 .83 29.76 .83 17.17 31.27 11.88 31.01 0 1.07 0 .83"/>
    <path class="cls-1" d="M47.71.18c11.6-1.09,18.96,6.56,18.06,18.02-.57,7.3-6.48,12.8-13.6,13.74C29.29,34.95,26.97,2.12,47.71.18ZM47.7,6.16c-10.88,1.47-9.95,21.33,3.03,20.03,12.03-1.2,11.48-21.99-3.03-20.03Z"/>
    <path class="cls-1" d="M101.52,28.74c-.38,1.32-8.01,3.08-9.48,3.23-12.87,1.28-22.07-7.21-18.96-20.36,2.92-12.31,19.03-14.9,27.86-7.42.22.28.03.39-.12.6-.28.41-3.97,4.08-4.26,4.16-.47.12-1.96-1.41-2.7-1.78-6.52-3.3-14.17.41-14.66,7.91-.61,9.35,7.79,13.46,15.81,9.92-.09-1.69.24-3.73.05-5.37-.04-.35-.03-.62-.37-.83h-5.64v-5.75h12.48v15.69Z"/>
    <path class="cls-1" d="M138,29.1c-.98.26-1.81.83-2.75,1.2-4.6,1.82-11.32,2.48-16.03.9-13.89-4.67-13.46-26.36.84-30.43,5.25-1.5,13.82-.75,17.45,3.75l-4.46,4.45c-8.36-7.07-19.98-.6-16.82,10.37,1.99,6.91,9.33,8.48,15.3,5.54v-6.07h-6.01v-5.75h12.48v16.05Z"/>
    <path class="cls-1" d="M167.52,3.47l-4.56,5.26c-1.58-2.38-4.43-3.18-7.15-2.47-1.74.45-2.97,2.45-2.06,4.13.98,1.82,7.36,3.05,9.53,4.38,6.58,4.03,5.03,13.74-1.93,16.42-4.76,1.83-12.77,1.03-15.56-3.78l4.58-4.55,1.3,1.56c2.02,2.05,6.96,2.65,8.61-.04,2.88-4.7-6.56-5.89-9.24-7.47-2.08-1.23-3.84-3.21-4.13-5.7-1.09-9.33,8.22-12.79,15.94-10.4,1.95.6,3.05,1.53,4.68,2.64Z"/>
    <polygon class="cls-1" points="179.52 .83 190.44 26.22 201.6 .83 205.68 .83 205.68 31.25 202.8 31.25 202.8 4.66 190.93 31.27 189.72 31.01 178.08 4.66 178.08 31.25 175.2 31.25 175.2 .83 179.52 .83"/>
    <path class="cls-1" d="M244.56,31.25V.83c6.48.23,13.46-1.03,19.27,2.44,8.8,5.25,8.88,20.14.24,25.54-1.41.88-5.33,2.44-6.91,2.44h-12.6ZM255.48,3.46c-2.57-.23-5.44.17-8.04,0v25.15h9c4.41,0,9.58-4.26,10.72-8.47,2.36-8.77-2.69-15.89-11.68-16.69Z"/>
    <path class="cls-1" d="M319.92,31.25l-3.08-.04-3.13-7.72-16.19-.12-3.39,7.64-3,.24,13.19-30.31c.81-.12,2.63-.4,3.11.27l12.5,30.04ZM312.48,20.71l-6.84-16.53-7.08,16.53h13.92Z"/>
    <path class="cls-1" d="M234.72.83v2.64h-15.84v10.78h14.88v2.64h-14.88v11.74h16.2c.68.63.25,1.78.36,2.64h-19.44V.83h18.72Z"/>
    <rect class="cls-1" x="280.32" y=".83" width="2.88" height="30.42"/>
  </g>
</svg>
